SplineFontDB: 3.0
FontName: ZLM-TEMPLATE
FullName: Zbalermorna Template
FamilyName: Zbalermorna
Weight: Regular
Copyright: Copyright (c) 2011-2015 by tyPoland Lukasz Dziedzic (http://www.typoland.com/) with Reserved Font Name "Lato". Licensed under the SIL Open Font License, Version 1.1 (http://scripts.sil.org/OFL). Modifications for Zbalermorna done by Jack Humbert 2019.
Version: 0.1
ItalicAngle: 0
UnderlinePosition: -510
UnderlineWidth: 89
Ascent: 1610
Descent: 390
InvalidEm: 0
sfntRevision: 0x0000199a
LayerCount: 2
Layer: 0 1 "Back" 1
Layer: 1 1 "Fore" 0
XUID: [1021 647 -312734098 30481]
StyleMap: 0x0040
FSType: 0
OS2Version: 3
OS2_WeightWidthSlopeOnly: 0
OS2_UseTypoMetrics: 0
CreationTime: 1438840825
ModificationTime: 1564665776
PfmFamily: 17
TTFWeight: 400
TTFWidth: 5
LineGap: 0
VLineGap: 0
Panose: 2 15 5 2 2 2 4 3 2 3
OS2TypoAscent: 1610
OS2TypoAOffset: 0
OS2TypoDescent: -390
OS2TypoDOffset: 0
OS2TypoLinegap: 400
OS2WinAscent: 1974
OS2WinAOffset: 0
OS2WinDescent: 426
OS2WinDOffset: 0
HheadAscent: 1974
HheadAOffset: 0
HheadDescent: -426
HheadDOffset: 0
OS2SubXSize: 1400
OS2SubYSize: 1300
OS2SubXOff: 0
OS2SubYOff: 280
OS2SupXSize: 1400
OS2SupYSize: 1300
OS2SupXOff: 0
OS2SupYOff: 954
OS2StrikeYSize: 89
OS2StrikeYPos: 550
OS2CapHeight: 1433
OS2XHeight: 1013
OS2Vendor: 'tyPL'
OS2CodePages: 2000019f.00000000
OS2UnicodeRanges: e10002ff.5200ecff.00000021.00000000
Lookup: 258 0 0 "zlm-'kern' Horizontal Kerning lookup 1" { "zlm-'kern' Horizontal Kerning lookup 1-1" [150,15,0] } ['kern' ('DFLT' <'dflt' > ) ]
MarkAttachClasses: 1
DEI: 91125
KernClass2: 22 22 "zlm-'kern' Horizontal Kerning lookup 1-1"
 112 ZLM_NULL ZLM_DOT_A ZLM_DOT_E ZLM_DOT_I ZLM_DOT_O ZLM_DOT_U ZLM_DOT_Y ZLM_DOT_AI ZLM_DOT_EI ZLM_DOT_OI ZLM_DOT_AU
 79 ZLM_H ZLM_HA ZLM_HE ZLM_HI ZLM_HO ZLM_HU ZLM_HY ZLM_HAI ZLM_HEI ZLM_HOI ZLM_HAU
 79 ZLM_P ZLM_PA ZLM_PE ZLM_PI ZLM_PO ZLM_PU ZLM_PY ZLM_PAI ZLM_PEI ZLM_POI ZLM_PAU
 79 ZLM_T ZLM_TA ZLM_TE ZLM_TI ZLM_TO ZLM_TU ZLM_TY ZLM_TAI ZLM_TEI ZLM_TOI ZLM_TAU

StartChar: ZLM_NULL
Encoding: 926464 926464 0
Width: 520
GlyphClass: 2
Flags: W
HStem: 468 251<163.559 353.129>
VStem: 134 250<497.889 688.129>
LayerCount: 2
Fore
SplineSet
134 593 m 0,0,1
 134 619 134 619 143.5 642 c 128,-1,2
 153 665 153 665 169.5 682 c 128,-1,3
 186 699 186 699 209 709 c 128,-1,4
 232 719 232 719 258 719 c 256,5,6
 284 719 284 719 307 709 c 128,-1,7
 330 699 330 699 347 682 c 128,-1,8
 364 665 364 665 374 642 c 128,-1,9
 384 619 384 619 384 593 c 0,10,11
 384 566 384 566 374 543.5 c 128,-1,12
 364 521 364 521 347 504 c 128,-1,13
 330 487 330 487 307 477.5 c 128,-1,14
 284 468 284 468 258 468 c 256,15,16
 232 468 232 468 209 477.5 c 128,-1,17
 186 487 186 487 169.5 504 c 128,-1,18
 153 521 153 521 143.5 543.5 c 128,-1,19
 134 566 134 566 134 593 c 0,0,1
EndSplineSet
EndChar

StartChar: ZLM_H
Encoding: 926480 926480 12
Width: 480
GlyphClass: 2
Flags: W
HStem: 0 21G<151 329> 993 20G<151 329>
VStem: 151 178<0 1013>
LayerCount: 2
Fore
SplineSet
329 1013 m 1,0,-1
 329 0 l 1,1,-1
 151 0 l 1,2,-1
 151 1013 l 1,3,-1
 329 1013 l 1,0,-1
EndSplineSet
EndChar

StartChar: ZLM_P
Encoding: 926496 926496 24
Width: 1089
Flags: W
HStem: 0 157<320 509.108> 993 20G<806 988> 1453 20G<141 320>
VStem: 141 179<157 1473> 806 179<598.016 1013>
LayerCount: 2
Fore
SplineSet
816 283 m 24,0,1
 625.470878578 3.7692071686e-14 625.470878578 3.7692071686e-14 303 0 c 0,2,3
 222 0 222 0 141 0 c 1,4,-1
 141 156 l 1,5,-1
 141 943 l 1,6,-1
 141 1013 l 1,7,-1
 141 1473 l 1,8,-1
 320 1473 l 1,9,-1
 320 1013 l 1,10,-1
 320 157 l 1,11,-1
 328 157 l 2,12,13
 552 157 552 157 672 361 c 0,14,15
 806 589 806 589 806 1013 c 1,16,-1
 985 1013 l 24,17,18
 991 544 991 544 816 283 c 24,0,1
EndSplineSet
EndChar

StartChar: ZLM_T
Encoding: 926512 926512 36
Width: 1116
GlyphClass: 2
Flags: W
HStem: 0 21G<141 320 806 985> 887 142<459.256 733.524> 1453 20G<141 320>
VStem: 141 179<0 789.232 878 1473> 806 179<0 810.795>
AnchorPoint: "Anchor-3" 296 1512 basechar 0
AnchorPoint: "Anchor-1" 563 -70 basechar 0
AnchorPoint: "Anchor-0" 296 1512 basechar 0
LayerCount: 2
Fore
SplineSet
320 878 m 1,0,1
 385 947 385 947 464 988 c 128,-1,2
 543 1029 543 1029 646 1029 c 0,3,4
 729 1029 729 1029 792.5 1001.5 c 128,-1,5
 856 974 856 974 898.5 923.5 c 128,-1,6
 941 873 941 873 963 802 c 128,-1,7
 985 731 985 731 985 645 c 2,8,-1
 985 0 l 1,9,-1
 806 0 l 1,10,-1
 806 645 l 2,11,12
 806 760 806 760 753.5 823.5 c 128,-1,13
 701 887 701 887 594 887 c 0,14,15
 515 887 515 887 446.5 849 c 128,-1,16
 378 811 378 811 320 746 c 1,17,-1
 320 0 l 1,18,-1
 141 0 l 1,19,-1
 141 1473 l 1,20,-1
 320 1473 l 1,21,-1
 320 878 l 1,0,1
EndSplineSet
EndChar

StartChar: ZLM_K
Encoding: 926528 926528 48
Width: 1115
GlyphClass: 2
Flags: W
HStem: 0 157<320 553.005> 993 20G<806 985> 1453 20G<141 320>
VStem: 141 179<157 1473> 806 179<360.508 1013> 828 157<0.765625 283>
LayerCount: 2
Fore
SplineSet
816 283 m 1,0,1
 674 0 674 0 303 0 c 0,2,3
 222 0 222 0 141 0 c 1,4,-1
 141 156 l 1,5,-1
 141 943 l 1,6,-1
 141 1013 l 1,7,-1
 141 1473 l 1,8,-1
 320 1473 l 1,9,-1
 320 1013 l 1,10,-1
 320 157 l 1,11,-1
 328 157 l 2,12,13
 645.419921875 157 645.419921875 157 763.5 360.5 c 0,14,15
 787 401 787 401 806 453 c 1,16,-1
 806 1013 l 1,17,-1
 985 1013 l 1,18,-1
 985 0 l 1,19,-1
 883 0 l 2,20,21
 830.512695312 -0 830.512695312 -0 828 49 c 2,22,-1
 816 283 l 1,0,1
EndSplineSet
EndChar

StartChar: ZLM_F
Encoding: 926544 926544 60
Width: 904
GlyphClass: 2
Flags: W
VStem: 319 178<357 613.313>
LayerCount: 2
Fore
SplineSet
612 873 m 0,0,1
 526 845 l 0,2,3
 319 672 319 672 319 357 c 2,4,-1
 319 0 l 1,5,-1
 497 0 l 0,6,-1
 498 450 l 2,7,8
 499 718 499 718 815 901.5 c 0,9,10
 821 905 821 905 821 939 c 2,11,-1
 821 1013 l 1,12,-1
 58 1013 l 1,13,-1
 58 873 l 1,14,-1
 612 873 l 0,0,1
EndSplineSet
EndChar

StartChar: ZLM_BAHEBU_1
Encoding: 926559 926559 71
Width: 188
VWidth: 0
GlyphClass: 2
Flags: W
HStem: -251 120<52.0487 135.951>
VStem: 34 120<-232.951 -149.049>
LayerCount: 2
Fore
SplineSet
34 -191 m 132,-1,1
 34 -166 34 -166 51.5 -148.5 c 128,-1,2
 69 -131 69 -131 94 -131 c 128,-1,3
 119 -131 119 -131 136.5 -148.5 c 128,-1,4
 154 -166 154 -166 154 -191 c 128,-1,5
 154 -216 154 -216 136.5 -233.5 c 128,-1,6
 119 -251 119 -251 94 -251 c 128,-1,7
 69 -251 69 -251 51.5 -233.5 c 128,-1,0
 34 -216 34 -216 34 -191 c 132,-1,1
EndSplineSet
Validated: 1
EndChar

StartChar: ZLM_L
Encoding: 926560 926560 72
Width: 955
GlyphClass: 2
Flags: W
HStem: -14 138<407.719 728.728> 890 139<408.389 736.301>
VStem: 84 182<283.201 731.294>
AnchorPoint: "Anchor-3" 556 1120 basechar 0
AnchorPoint: "Anchor-1" 486 -70 basechar 0
LayerCount: 2
Fore
SplineSet
846 833 m 2,0,1
 838 822 838 822 830 816 c 128,-1,2
 822 810 822 810 808 810 c 0,3,4
 793 810 793 810 775 822.5 c 128,-1,5
 757 835 757 835 730.5 850 c 128,-1,6
 704 865 704 865 665.5 877.5 c 128,-1,7
 627 890 627 890 571 890 c 0,8,9
 496 890 496 890 439 863.5 c 128,-1,10
 382 837 382 837 343.5 787 c 128,-1,11
 305 737 305 737 285.5 666 c 128,-1,12
 266 595 266 595 266 507 c 0,13,14
 266 415 266 415 287 343.5 c 128,-1,15
 308 272 308 272 346.5 223.5 c 128,-1,16
 385 175 385 175 439.5 149.5 c 128,-1,17
 494 124 494 124 562 124 c 0,18,19
 627 124 627 124 669 139.5 c 128,-1,20
 711 155 711 155 738.5 174 c 128,-1,21
 766 193 766 193 784.5 208.5 c 128,-1,22
 803 224 803 224 821 224 c 0,23,24
 843 224 843 224 855 207 c 2,25,-1
 905 142 l 1,26,27
 872 101 872 101 830 72 c 128,-1,28
 788 43 788 43 739.5 23.5 c 128,-1,29
 691 4 691 4 638 -5 c 128,-1,30
 585 -14 585 -14 530 -14 c 0,31,32
 435 -14 435 -14 353.5 21 c 128,-1,33
 272 56 272 56 212 122.5 c 128,-1,34
 152 189 152 189 118 286 c 128,-1,35
 84 383 84 383 84 507 c 0,36,37
 84 620 84 620 115.5 716 c 128,-1,38
 147 812 147 812 207.5 881.5 c 128,-1,39
 268 951 268 951 356.5 990 c 128,-1,40
 445 1029 445 1029 560 1029 c 0,41,42
 667 1029 667 1029 748.5 994.5 c 128,-1,43
 830 960 830 960 893 897 c 1,44,-1
 846 833 l 2,0,1
EndSplineSet
EndChar

StartChar: ZLM_BAHEBU_2
Encoding: 926575 926575 83
Width: 358
VWidth: 0
GlyphClass: 2
Flags: W
HStem: -251 120<52.0487 135.951 222.049 305.951>
VStem: 34 120<-232.951 -149.049> 204 120<-232.951 -149.049>
LayerCount: 2
Fore
SplineSet
204 -191 m 128,-1,1
 204 -166 204 -166 221.5 -148.5 c 128,-1,2
 239 -131 239 -131 264 -131 c 128,-1,3
 289 -131 289 -131 306.5 -148.5 c 128,-1,4
 324 -166 324 -166 324 -191 c 128,-1,5
 324 -216 324 -216 306.5 -233.5 c 128,-1,6
 289 -251 289 -251 264 -251 c 128,-1,7
 239 -251 239 -251 221.5 -233.5 c 128,-1,0
 204 -216 204 -216 204 -191 c 128,-1,1
34 -191 m 128,-1,9
 34 -166 34 -166 51.5 -148.5 c 128,-1,10
 69 -131 69 -131 94 -131 c 128,-1,11
 119 -131 119 -131 136.5 -148.5 c 128,-1,12
 154 -166 154 -166 154 -191 c 128,-1,13
 154 -216 154 -216 136.5 -233.5 c 128,-1,14
 119 -251 119 -251 94 -251 c 128,-1,15
 69 -251 69 -251 51.5 -233.5 c 128,-1,8
 34 -216 34 -216 34 -191 c 128,-1,9
EndSplineSet
Validated: 1
EndChar

StartChar: ZLM_S
Encoding: 926576 926576 84
Width: 1120
GlyphClass: 2
Flags: W
HStem: -14 144<380.624 653.062> 0 21G<854 979> 892 139<406.115 705.261> 1453 20G<801 979>
VStem: 86 184<256.556 735.176> 801 178<232.891 821.323 912 1473> 825 154<0.144531 144.625>
AnchorPoint: "Anchor-3" 506 1120 basechar 0
AnchorPoint: "Anchor-1" 597 -70 basechar 0
AnchorPoint: "Anchor-0" 830 1512 basechar 0
LayerCount: 2
Fore
SplineSet
801 772 m 1,0,1
 751 839 751 839 693 865.5 c 128,-1,2
 635 892 635 892 563 892 c 0,3,4
 422 892 422 892 346 791 c 128,-1,5
 270 690 270 690 270 503 c 0,6,7
 270 404 270 404 287 333.5 c 128,-1,8
 304 263 304 263 337 217.5 c 128,-1,9
 370 172 370 172 418 151 c 128,-1,10
 466 130 466 130 527 130 c 0,11,12
 615 130 615 130 680.5 170 c 128,-1,13
 746 210 746 210 801 283 c 1,14,-1
 801 772 l 1,0,1
979 1473 m 1,15,-1
 979 0 l 1,16,-1
 873 0 l 2,17,18
 835 0 835 0 825 37 c 1,19,-1
 809 160 l 1,20,21
 744 82 744 82 661 34 c 128,-1,22
 578 -14 578 -14 469 -14 c 0,23,24
 382 -14 382 -14 311 19.5 c 128,-1,25
 240 53 240 53 190 118 c 128,-1,26
 140 183 140 183 113 280 c 128,-1,27
 86 377 86 377 86 503 c 0,28,29
 86 615 86 615 116 711.5 c 128,-1,30
 146 808 146 808 202 879 c 128,-1,31
 258 950 258 950 339.5 990.5 c 128,-1,32
 421 1031 421 1031 523 1031 c 0,33,34
 616 1031 616 1031 682.5 999.5 c 128,-1,35
 749 968 749 968 801 912 c 1,36,-1
 801 1473 l 1,37,-1
 979 1473 l 1,15,-1
EndSplineSet
EndChar

StartChar: ZLM_BAHEBU_3
Encoding: 926591 926591 95
Width: 368
VWidth: 0
GlyphClass: 2
Flags: W
HStem: -301 120<52.0487 135.951 232.049 315.951> -151 120<142.049 225.951>
VStem: 34 120<-282.951 -199.049> 124 120<-132.951 -49.0487> 214 120<-282.951 -199.049>
LayerCount: 2
Fore
SplineSet
214 -241 m 128,-1,1
 214 -216 214 -216 231.5 -198.5 c 128,-1,2
 249 -181 249 -181 274 -181 c 128,-1,3
 299 -181 299 -181 316.5 -198.5 c 128,-1,4
 334 -216 334 -216 334 -241 c 128,-1,5
 334 -266 334 -266 316.5 -283.5 c 128,-1,6
 299 -301 299 -301 274 -301 c 128,-1,7
 249 -301 249 -301 231.5 -283.5 c 128,-1,0
 214 -266 214 -266 214 -241 c 128,-1,1
34 -241 m 128,-1,9
 34 -216 34 -216 51.5 -198.5 c 128,-1,10
 69 -181 69 -181 94 -181 c 128,-1,11
 119 -181 119 -181 136.5 -198.5 c 128,-1,12
 154 -216 154 -216 154 -241 c 128,-1,13
 154 -266 154 -266 136.5 -283.5 c 128,-1,14
 119 -301 119 -301 94 -301 c 128,-1,15
 69 -301 69 -301 51.5 -283.5 c 128,-1,8
 34 -266 34 -266 34 -241 c 128,-1,9
124 -91 m 128,-1,17
 124 -66 124 -66 141.5 -48.5 c 128,-1,18
 159 -31 159 -31 184 -31 c 128,-1,19
 209 -31 209 -31 226.5 -48.5 c 128,-1,20
 244 -66 244 -66 244 -91 c 128,-1,21
 244 -116 244 -116 226.5 -133.5 c 128,-1,22
 209 -151 209 -151 184 -151 c 128,-1,23
 159 -151 159 -151 141.5 -133.5 c 128,-1,16
 124 -116 124 -116 124 -91 c 128,-1,17
EndSplineSet
Validated: 1
EndChar

StartChar: ZLM_C
Encoding: 926592 926592 96
Width: 1116
GlyphClass: 2
Flags: W
HStem: 0 21G<141 320 806.139 985> 887 142<437.992 734.423> 993 20G<141 267> 1453 20G<806 985>
VStem: 141 179<0 788.771> 141 154<866 1012.92> 806.141 178.859<0 810.672 914.97 1473>
LayerCount: 2
Fore
SplineSet
309 866 m 1,0,1
 365 929 365 929 368.989257812 933 c 0,2,3
 399 963 399 963 434.171875 984.5 c 0,4,5
 469 1006 469 1006 507.243164062 1017.5 c 0,6,7
 546 1029 546 1029 590.694335938 1029 c 0,8,9
 659 1029 659 1029 712.342773438 1001.5 c 0,10,11
 765 974 765 974 800.360351562 923.5 c 0,12,13
 803.288305547 919.252804055 803.288305547 919.252804055 806.053274235 914.970144555 c 2,14,-1
 806 1473 l 1,15,-1
 985 1473 l 1,16,-1
 985 -0 l 1,17,-1
 975 0 l 1,18,-1
 806.140625 0 l 1,19,-1
 806.079008404 645.413301806 l 1,20,21
 791.346654136 777.576913962 791.346654136 777.576913962 753.719726562 823.5 c 0,22,23
 702 887 702 887 594.506835938 887 c 0,24,25
 515 887 515 887 447.272460938 849 c 0,26,27
 377 810 377 810 320 746 c 1,28,-1
 320 0 l 1,29,-1
 141 0 l 1,30,-1
 141 1013 l 1,31,-1
 248 1013 l 2,32,33
 286 1013 286 1013 295 976 c 1,34,-1
 309 866 l 1,0,1
EndSplineSet
EndChar

StartChar: ZLM_M
Encoding: 926608 926608 108
Width: 904
GlyphClass: 2
Flags: W
HStem: 896 133<228.462 539.995>
AnchorPoint: "Anchor-3" 474 1120 basechar 0
AnchorPoint: "Anchor-1" 452 -70 basechar 0
LayerCount: 2
Fore
SplineSet
267 139 m 1,0,-1
 520.66796875 372 l 2,1,2
 759 591 759 591 759 724.5 c 3,3,4
 759 1029 759 1029 401 1029 c 0,5,6
 208 1029 208 1029 84 911 c 1,7,-1
 124 846 l 2,8,9
 138 824 138 824 157 824 c 128,-1,10
 176 824 176 824 195 835 c 128,-1,11
 214 846 214 846 241.5 859.5 c 0,12,13
 316 896 316 896 378.925925926 896 c 128,-1,14
 442 896 442 896 478 884.5 c 128,-1,15
 514 873 514 873 539.5 853 c 0,16,17
 594 810 594 810 587 735.08203125 c 0,18,19
 578.956524076 639.483277605 578.956524076 639.483277605 451.013671875 510.375 c 26,20,-1
 82 138 l 2,21,22
 58 114 58 114 58 74 c 2,23,-1
 58 0 l 1,24,-1
 821 0 l 1,25,-1
 821 139 l 1,26,-1
 267 139 l 1,0,-1
EndSplineSet
EndChar

StartChar: ZLM_X
Encoding: 926624 926624 120
Width: 1134
GlyphClass: 2
Flags: W
HStem: -14 139<401.365 731.54> 889 140<403.708 731.54>
VStem: 84 183<278.043 737.261> 866 184<276.574 736.833>
AnchorPoint: "Anchor-3" 569 1120 basechar 0
AnchorPoint: "Anchor-1" 569 -70 basechar 0
LayerCount: 2
Fore
SplineSet
568 1029 m 0,0,1
 679 1029 679 1029 768 992 c 128,-1,2
 857 955 857 955 920 887 c 128,-1,3
 983 819 983 819 1016.5 722.5 c 128,-1,4
 1050 626 1050 626 1050 507 c 0,5,6
 1050 387 1050 387 1016.5 291 c 128,-1,7
 983 195 983 195 920 127 c 128,-1,8
 857 59 857 59 768 22.5 c 128,-1,9
 679 -14 679 -14 568 -14 c 0,10,11
 456 -14 456 -14 366.5 22.5 c 128,-1,12
 277 59 277 59 214 127 c 128,-1,13
 151 195 151 195 117.5 291 c 128,-1,14
 84 387 84 387 84 507 c 0,15,16
 84 626 84 626 117.5 722.5 c 128,-1,17
 151 819 151 819 214 887 c 128,-1,18
 277 955 277 955 366.5 992 c 128,-1,19
 456 1029 456 1029 568 1029 c 0,0,1
568 125 m 0,20,21
 718 125 718 125 792 225.5 c 128,-1,22
 866 326 866 326 866 506 c 0,23,24
 866 687 866 687 792 788 c 128,-1,25
 718 889 718 889 568 889 c 0,26,27
 492 889 492 889 435.5 863 c 128,-1,28
 379 837 379 837 341.5 788 c 128,-1,29
 304 739 304 739 285.5 667.5 c 128,-1,30
 267 596 267 596 267 506 c 0,31,32
 267 326 267 326 341.5 225.5 c 128,-1,33
 416 125 416 125 568 125 c 0,20,21
EndSplineSet
EndChar

StartChar: ZLM_B
Encoding: 926640 926640 132
Width: 1115
GlyphClass: 2
Flags: W
HStem: 0 21G<138 320> 856 157<616.892 806>
VStem: 141 179<0 414.984> 806 179<-343 856>
LayerCount: 2
Fore
SplineSet
310 730 m 24,0,1
 500.529121422 1013 500.529121422 1013 823 1013 c 0,2,3
 904 1013 904 1013 985 1013 c 1,4,-1
 985 857 l 1,5,-1
 985 70 l 1,6,-1
 985 0 l 1,7,-1
 985 -343 l 1,8,-1
 806 -343 l 1,9,-1
 806 0 l 1,10,-1
 806 856 l 1,11,-1
 798 856 l 2,12,13
 574 856 574 856 454 652 c 0,14,15
 320 424 320 424 320 0 c 1,16,-1
 141 0 l 24,17,18
 135 469 135 469 310 730 c 24,0,1
EndSplineSet
EndChar

StartChar: ZLM_D
Encoding: 926656 926656 144
Width: 1115
GlyphClass: 2
Flags: W
HStem: -16 142<380.868 655.998> 993 20G<131 309 796 974>
VStem: 131 178<201.27 1013> 796 178<-343 135.2 223.243 1013>
AnchorPoint: "Anchor-3" 558 1120 basechar 0
AnchorPoint: "Anchor-1" 596 -70 basechar 0
LayerCount: 2
Fore
SplineSet
796 135.199767736 m 1,0,1
 733.843898864 69.6591890174 733.843898864 69.6591890174 658 28.5 c 0,2,3
 576 -16 576 -16 470 -16 c 0,4,5
 387 -16 387 -16 323.5 11.5 c 128,-1,6
 260 39 260 39 217 89 c 128,-1,7
 174 139 174 139 152.5 210 c 128,-1,8
 131 281 131 281 131 367 c 2,9,-1
 131 1013 l 1,10,-1
 309 1013 l 1,11,-1
 309 367 l 2,12,13
 309 252 309 252 361.5 189 c 128,-1,14
 414 126 414 126 522 126 c 0,15,16
 601 126 601 126 669.5 163.5 c 128,-1,17
 738 201 738 201 796 267 c 1,18,-1
 796 1013 l 1,19,-1
 974 1013 l 1,20,-1
 974 2.81996648255e-14 l 1,21,-1
 974 -343 l 1,22,-1
 796 -343 l 1,23,-1
 796 135.199767736 l 1,0,1
EndSplineSet
EndChar

StartChar: ZLM_G
Encoding: 926672 926672 156
Width: 1115
GlyphClass: 2
Flags: W
HStem: -364 135<589.133 770.692> 0 21G<141 320> 856 157<572.995 806>
VStem: 141 179<0 652.492> 141 157<730 1012.23> 806 179<-194.594 856>
LayerCount: 2
Fore
SplineSet
310 730 m 1,0,1
 452 1013 452 1013 823 1013 c 0,2,3
 904 1013 904 1013 985 1013 c 1,4,-1
 985 857 l 1,5,-1
 985 70 l 1,6,-1
 985 0 l 1,7,-1
 985.28125 -75 l 1,8,9
 980.5 -364 980.5 -364 696.28125 -364 c 0,10,11
 664 -364 664 -364 637.28125 -359 c 0,12,13
 610 -354 610 -354 583.28125 -344 c 1,14,-1
 590.28125 -248 l 2,15,16
 591 -240 591 -240 596.78125 -234.5 c 0,17,18
 601 -230 601 -230 609.28125 -229 c 0,19,20
 617 -228 617 -228 629.78125 -228.5 c 0,21,22
 642 -229 642 -229 661.28125 -229 c 0,23,24
 806.85875 -229 806.85875 -229 806.28125 -75 c 2,25,-1
 806 0 l 1,26,-1
 806 856 l 1,27,-1
 798 856 l 2,28,29
 480.580078125 856 480.580078125 856 362.5 652.5 c 0,30,31
 339 612 339 612 320 560 c 1,32,-1
 320 0 l 1,33,-1
 141 0 l 1,34,-1
 141 1013 l 1,35,-1
 243 1013 l 2,36,37
 295.487304688 1013 295.487304688 1013 298 964 c 2,38,-1
 310 730 l 1,0,1
EndSplineSet
EndChar

StartChar: ZLM_V
Encoding: 926688 926688 167
Width: 904
GlyphClass: 2
Flags: W
VStem: 381 179<399.687 656>
LayerCount: 2
Fore
SplineSet
267 139 m 0,0,1
 353 168 l 0,2,3
 560 341 560 341 560 656 c 2,4,-1
 560 1013 l 1,5,-1
 382 1013 l 0,6,-1
 381 563 l 2,7,8
 380 295 380 295 64 111.5 c 0,9,10
 58 108 58 108 58 74 c 2,11,-1
 58 0 l 1,12,-1
 821 0 l 1,13,-1
 821 139 l 1,14,-1
 267 139 l 0,0,1
EndSplineSet
EndChar

StartChar: ZLM_R
Encoding: 926704 926704 178
Width: 955
GlyphClass: 2
Flags: W
HStem: -14 138<260.272 581.281> 890 139<252.699 580.611>
VStem: 723 182<283.201 731.294>
AnchorPoint: "Anchor-3" 433 1120 basechar 0
AnchorPoint: "Anchor-1" 503 -70 basechar 0
LayerCount: 2
Fore
SplineSet
143 833 m 2,0,1
 151 822 151 822 159 816 c 128,-1,2
 167 810 167 810 181 810 c 0,3,4
 196 810 196 810 214 822.5 c 128,-1,5
 232 835 232 835 258.5 850 c 128,-1,6
 285 865 285 865 323.5 877.5 c 128,-1,7
 362 890 362 890 418 890 c 0,8,9
 493 890 493 890 550 863.5 c 128,-1,10
 607 837 607 837 645.5 787 c 128,-1,11
 684 737 684 737 703.5 666 c 128,-1,12
 723 595 723 595 723 507 c 0,13,14
 723 415 723 415 702 343.5 c 128,-1,15
 681 272 681 272 642.5 223.5 c 128,-1,16
 604 175 604 175 549.5 149.5 c 128,-1,17
 495 124 495 124 427 124 c 0,18,19
 362 124 362 124 320 139.5 c 128,-1,20
 278 155 278 155 250.5 174 c 128,-1,21
 223 193 223 193 204.5 208.5 c 128,-1,22
 186 224 186 224 168 224 c 0,23,24
 146 224 146 224 134 207 c 2,25,-1
 84 142 l 1,26,27
 117 101 117 101 159 72 c 128,-1,28
 201 43 201 43 249.5 23.5 c 128,-1,29
 298 4 298 4 351 -5 c 128,-1,30
 404 -14 404 -14 459 -14 c 0,31,32
 554 -14 554 -14 635.5 21 c 128,-1,33
 717 56 717 56 777 122.5 c 128,-1,34
 837 189 837 189 871 286 c 128,-1,35
 905 383 905 383 905 507 c 0,36,37
 905 620 905 620 873.5 716 c 128,-1,38
 842 812 842 812 781.5 881.5 c 128,-1,39
 721 951 721 951 632.5 990 c 128,-1,40
 544 1029 544 1029 429 1029 c 0,41,42
 322 1029 322 1029 240.5 994.5 c 128,-1,43
 159 960 159 960 96 897 c 1,44,-1
 143 833 l 2,0,1
EndSplineSet
EndChar

StartChar: ZLM_Z
Encoding: 926720 926720 189
Width: 1121
GlyphClass: 2
Flags: W
HStem: -14 138<414.759 714.326> 887 144<467.462 739.766> 993 20G<141 267>
VStem: 141 179<-343 105 195.254 784.109> 141 154<871 1012.92> 851 184<280.828 757.582>
AnchorPoint: "Anchor-3" 526 1120 basechar 0
AnchorPoint: "Anchor-1" 507 -421 basechar 0
LayerCount: 2
Fore
SplineSet
320 244 m 1,0,1
 369 178 369 178 427 151 c 128,-1,2
 485 124 485 124 557 124 c 0,3,4
 699 124 699 124 775 225 c 128,-1,5
 851 326 851 326 851 513 c 0,6,7
 851 612 851 612 833.5 683 c 128,-1,8
 816 754 816 754 783 799.5 c 128,-1,9
 750 845 750 845 702 866 c 128,-1,10
 654 887 654 887 593 887 c 0,11,12
 506 887 506 887 440.5 847 c 128,-1,13
 375 807 375 807 320 734 c 1,14,-1
 320 244 l 1,0,1
311 856 m 1,15,16
 375 935 375 935 459 983 c 128,-1,17
 543 1031 543 1031 651 1031 c 0,18,19
 739 1031 739 1031 810 997.5 c 128,-1,20
 881 964 881 964 931 898.5 c 128,-1,21
 981 833 981 833 1008 736 c 128,-1,22
 1035 639 1035 639 1035 513 c 0,23,24
 1035 401 1035 401 1005 304.5 c 128,-1,25
 975 208 975 208 918.5 137.5 c 128,-1,26
 862 67 862 67 780.5 26.5 c 128,-1,27
 699 -14 699 -14 597 -14 c 0,28,29
 504 -14 504 -14 437.5 17.5 c 128,-1,30
 371 49 371 49 320 105 c 1,31,-1
 320 -343 l 1,32,-1
 141 -343 l 1,33,-1
 141 1013 l 1,34,-1
 248 1013 l 2,35,36
 286 1013 286 1013 295 976 c 1,37,-1
 311 856 l 1,15,16
EndSplineSet
EndChar

StartChar: ZLM_J
Encoding: 926736 926736 200
Width: 1116
GlyphClass: 2
Flags: W
HStem: -16 142<391.857 688.008> 0 21G<859 985> 993 20G<141 319.861 806 985>
VStem: 141 178.921<-343 98.0303 202.236 1013> 806 179<224.229 1013> 831 154<0.0812988 147>
LayerCount: 2
Fore
SplineSet
817 147 m 1,0,1
 761 84 761 84 757.010742188 80 c 0,2,3
 727 50 727 50 691.828125 28.5 c 0,4,5
 657 7 657 7 618.756835938 -4.5 c 0,6,7
 580 -16 580 -16 535.305664062 -16 c 0,8,9
 467 -16 467 -16 413.657226562 11.5 c 0,10,11
 358 40 358 40 325.639648438 89.5 c 0,12,13
 320 98 320 98 319.946289062 98.0302734375 c 2,14,-1
 320 -343 l 1,15,-1
 278 -343 l 0,16,-1
 141 -343 l 1,17,-1
 141 1013 l 1,18,-1
 151 1013 l 1,19,-1
 319.859375 1013 l 1,20,-1
 319.920898438 367.586914062 l 1,21,22
 335 235 335 235 372.280273438 189.5 c 0,23,24
 424 126 424 126 531.493164062 126 c 0,25,26
 611 126 611 126 678.727539062 164 c 0,27,28
 749 203 749 203 806 267 c 1,29,-1
 806 1013 l 1,30,-1
 979 1013 l 0,31,-1
 985 1013 l 1,32,-1
 985 0 l 1,33,-1
 878 0 l 2,34,35
 840 0 840 0 831 37 c 1,36,-1
 817 147 l 1,0,1
EndSplineSet
EndChar

StartChar: ZLM_N
Encoding: 926752 926752 211
Width: 904
Flags: W
HStem: -16 133<351.005 662.538>
AnchorPoint: "Anchor-1" 464 -70 basechar 0
LayerCount: 2
Fore
SplineSet
600 873 m 1,0,-1
 370.33203125 641 l 2,1,2
 132 400 132 400 132 288.5 c 3,3,4
 132 -16 132 -16 490 -16 c 0,5,6
 683 -16 683 -16 807 102 c 1,7,-1
 767 167 l 2,8,9
 753 189 753 189 734 189 c 128,-1,10
 715 189 715 189 696 178 c 128,-1,11
 677 167 677 167 649.5 153.5 c 0,12,13
 575 117 575 117 512.07421875 117 c 128,-1,14
 449 117 449 117 413 128.5 c 128,-1,15
 377 140 377 140 351.5 160 c 0,16,17
 296 204 296 204 304 277.91796875 c 0,18,19
 314.026354254 371.245310746 314.026354254 371.245310746 439.986328125 502.625 c 26,20,-1
 797 875 l 2,21,22
 821 900 821 900 821 939 c 2,23,-1
 821 1013 l 1,24,-1
 58 1013 l 1,25,-1
 58 873 l 1,26,-1
 600 873 l 1,0,-1
EndSplineSet
EndChar

StartChar: ZLM_SEMIVOWEL_W
Encoding: 926784 926784 233
Width: 1032
Flags: W
HStem: 0 21G<427.846 604.154> 993 20G<23 179 860.5 1009>
AnchorPoint: "Anchor-3" 516 1120 basechar 0
AnchorPoint: "Anchor-1" 516 -70 basechar 0
LayerCount: 2
Fore
SplineSet
1009 1013 m 5,0,-1
 596 0 l 1,1,-1
 436 0 l 1,2,-1
 23 1013 l 1,3,-1
 168 1013 l 2,4,5
 190 1013 190 1013 204 1002 c 0,6,7
 216.559769726 992.338638673 216.559769726 992.338638673 223 976 c 2,8,-1
 480 324 l 2,9,10
 487 307 487 307 501 252 c 0,11,12
 510 217 510 217 518 182 c 1,13,14
 526 217 526 217 535 252 c 0,15,16
 546.945404914 298.786169245 546.945404914 298.786169245 557 324 c 2,17,-1
 817 976 l 2,18,19
 823 991 823 991 837 1002.5 c 0,20,21
 851 1013 851 1013 870 1013 c 2,22,-1
 1009 1013 l 5,0,-1
EndSplineSet
EndChar

StartChar: ZLM_DIACRITIC_A
Encoding: 926800 926800 244
Width: 0
GlyphClass: 2
Flags: W
HStem: 1150 362<-41.0438 43.0741>
VStem: -77 155<1236.38 1512>
LayerCount: 2
Fore
SplineSet
78 1512 m 1,0,-1
 78 1372 l 1,1,-1
 62 1217 l 2,2,3
 59 1188 59 1188 43.5 1167.5 c 0,4,5
 30 1150 30 1150 0 1150 c 0,6,7
 -27 1150 -27 1150 -41.5 1167.5 c 0,8,9
 -57.8896484375 1186.87011719 -57.8896484375 1186.87011719 -61 1217 c 2,10,-1
 -77 1372 l 1,11,-1
 -77 1512 l 1,12,-1
 78 1512 l 1,0,-1
EndSplineSet
EndChar

StartChar: ZLM_DIACRITIC_E
Encoding: 926816 926816 255
Width: 0
GlyphClass: 2
Flags: W
HStem: 1245.1 151<-247 247>
VStem: -247 494<1245.1 1396.1>
LayerCount: 2
Fore
SplineSet
-247 1396.09960938 m 1,0,-1
 247 1396.09960938 l 1,1,-1
 247 1245.09960938 l 1,2,-1
 -247 1245.09960938 l 1,3,-1
 -247 1396.09960938 l 1,0,-1
EndSplineSet
EndChar

StartChar: ZLM_DIACRITIC_I
Encoding: 926832 926832 266
Width: 0
GlyphClass: 2
Flags: W
HStem: 1206 251<-94.4414 95.1289>
VStem: -124 250<1235.89 1426.13>
LayerCount: 2
Fore
SplineSet
-124 1331 m 0,0,1
 -124 1357 -124 1357 -114.5 1380 c 128,-1,2
 -105 1403 -105 1403 -88.5 1420 c 128,-1,3
 -72 1437 -72 1437 -49 1447 c 128,-1,4
 -26 1457 -26 1457 0 1457 c 256,5,6
 26 1457 26 1457 49 1447 c 128,-1,7
 72 1437 72 1437 89 1420 c 128,-1,8
 106 1403 106 1403 116 1380 c 128,-1,9
 126 1357 126 1357 126 1331 c 0,10,11
 126 1304 126 1304 116 1281.5 c 128,-1,12
 106 1259 106 1259 89 1242 c 128,-1,13
 72 1225 72 1225 49 1215.5 c 128,-1,14
 26 1206 26 1206 0 1206 c 256,15,16
 -26 1206 -26 1206 -49 1215.5 c 128,-1,17
 -72 1225 -72 1225 -88.5 1242 c 128,-1,18
 -105 1259 -105 1259 -114.5 1281.5 c 128,-1,19
 -124 1304 -124 1304 -124 1331 c 0,0,1
EndSplineSet
EndChar

StartChar: ZLM_DIACRITIC_O
Encoding: 926848 926848 277
Width: 0
GlyphClass: 2
Flags: W
HStem: 1201 117<30.4519 137.792> 1303 117<-110.605 -0.344597>
VStem: -197.38 79.9199<1205 1299.37> 144.62 77.7598<1323.89 1414>
LayerCount: 2
Fore
SplineSet
-940 1852 m 1025,0,-1
89.900390625 1318 m 0,1,2
 143 1318 143 1318 144.620117188 1414 c 1,3,-1
 222.379882812 1414 l 1,4,5
 222 1266 222 1266 147.139648438 1216.5 c 0,6,7
 124 1201 124 1201 96.7392578125 1201 c 0,8,9
 70 1201 70 1201 47.7802734375 1215.5 c 0,10,11
 26 1230 26 1230 6.3798828125 1252 c 0,12,13
 -13 1274 -13 1274 -30.33984375 1288.5 c 0,14,15
 -48 1303 -48 1303 -64.1796875 1303 c 0,16,17
 -116 1303 -116 1303 -117.459960938 1205 c 1,18,-1
 -197.379882812 1205 l 1,19,20
 -197 1354 -197 1354 -120.33984375 1404.5 c 0,21,22
 -97 1420 -97 1420 -69.9399414062 1420 c 128,-1,23
 -43 1420 -43 1420 -21.33984375 1405.5 c 0,24,25
 1 1391 1 1391 20.060546875 1374 c 0,26,27
 52.831337878 1335.63837291 52.831337878 1335.63837291 56.419921875 1332.5 c 0,28,29
 73 1318 73 1318 89.900390625 1318 c 0,1,2
EndSplineSet
EndChar

StartChar: ZLM_DIACRITIC_U
Encoding: 926864 926864 288
Width: 0
GlyphClass: 2
Flags: W
HStem: 1190.9 92.7998<-100.599 100.387>
VStem: -208 95.2002<1299.38 1406.1> 112.8 95.2002<1299.38 1406.1>
LayerCount: 2
Fore
SplineSet
0 1190.90039062 m 4,0,1
 -61.599609375 1190.90039062 -61.599609375 1190.90039062 -103.200195312 1208.09960938 c 132,-1,2
 -144.799804688 1225.29980469 -144.799804688 1225.29980469 -170.799804688 1254.5 c 132,-1,3
 -196.799804688 1283.70019531 -196.799804688 1283.70019531 -208 1322.90039062 c 132,-1,4
 -219.200195312 1362.09960938 -219.200195312 1362.09960938 -219.200195312 1406.09960938 c 5,5,-1
 -118.400390625 1406.09960938 l 5,6,7
 -118.400390625 1379.70019531 -118.400390625 1379.70019531 -112.799804688 1356.90039062 c 132,-1,8
 -107.200195312 1334.09960938 -107.200195312 1334.09960938 -93.599609375 1318.09960938 c 132,-1,9
 -80 1302.09960938 -80 1302.09960938 -57.2001953125 1292.90039062 c 132,-1,10
 -34.400390625 1283.70019531 -34.400390625 1283.70019531 0 1283.70019531 c 260,11,12
 34.400390625 1283.70019531 34.400390625 1283.70019531 57.2001953125 1292.90039062 c 132,-1,13
 80 1302.09960938 80 1302.09960938 93.599609375 1318.09960938 c 132,-1,14
 107.200195312 1334.09960938 107.200195312 1334.09960938 112.799804688 1356.90039062 c 132,-1,15
 118.400390625 1379.70019531 118.400390625 1379.70019531 118.400390625 1406.09960938 c 5,16,-1
 219.200195312 1406.09960938 l 5,17,18
 219.200195312 1362.09960938 219.200195312 1362.09960938 208 1322.90039062 c 132,-1,19
 196.799804688 1283.70019531 196.799804688 1283.70019531 170.799804688 1254.5 c 132,-1,20
 144.799804688 1225.29980469 144.799804688 1225.29980469 102.799804688 1208.09960938 c 132,-1,21
 60.7998046875 1190.90039062 60.7998046875 1190.90039062 0 1190.90039062 c 4,0,1
EndSplineSet
EndChar

StartChar: ZLM_DIACRITIC_Y
Encoding: 926880 926880 299
Width: 0
GlyphClass: 2
Flags: W
HStem: 1146.1 84<-78.9133 77.5095> 1431.1 86<-78.9133 77.5095>
VStem: -201 100<1251.85 1409.36> 100 100<1252.36 1408.85>
LayerCount: 2
Fore
SplineSet
-201 1330.09960938 m 0,0,1
 -201 1372.09960938 -201 1372.09960938 -185 1406.09960938 c 128,-1,2
 -169 1440.09960938 -169 1440.09960938 -141.5 1465.09960938 c 128,-1,3
 -114 1490.09960938 -114 1490.09960938 -78 1503.59960938 c 128,-1,4
 -42 1517.09960938 -42 1517.09960938 -2 1517.09960938 c 0,5,6
 39 1517.09960938 39 1517.09960938 75.5 1503.59960938 c 128,-1,7
 112 1490.09960938 112 1490.09960938 140 1465.09960938 c 128,-1,8
 168 1440.09960938 168 1440.09960938 184 1406.09960938 c 128,-1,9
 200 1372.09960938 200 1372.09960938 200 1330.09960938 c 0,10,11
 200 1289.09960938 200 1289.09960938 184 1255.09960938 c 128,-1,12
 168 1221.09960938 168 1221.09960938 140 1197.09960938 c 128,-1,13
 112 1173.09960938 112 1173.09960938 75.5 1159.59960938 c 128,-1,14
 39 1146.09960938 39 1146.09960938 -2 1146.09960938 c 0,15,16
 -42 1146.09960938 -42 1146.09960938 -78 1159.59960938 c 128,-1,17
 -114 1173.09960938 -114 1173.09960938 -141.5 1197.09960938 c 128,-1,18
 -169 1221.09960938 -169 1221.09960938 -185 1255.09960938 c 128,-1,19
 -201 1289.09960938 -201 1289.09960938 -201 1330.09960938 c 0,0,1
-101 1330.09960938 m 0,20,21
 -101 1286.09960938 -101 1286.09960938 -74 1258.09960938 c 128,-1,22
 -47 1230.09960938 -47 1230.09960938 -0 1230.09960938 c 0,23,24
 45 1230.09960938 45 1230.09960938 72.5 1258.09960938 c 128,-1,25
 100 1286.09960938 100 1286.09960938 100 1330.09960938 c 0,26,27
 100 1375.09960938 100 1375.09960938 72.5 1403.09960938 c 128,-1,28
 45 1431.09960938 45 1431.09960938 -0 1431.09960938 c 0,29,30
 -47 1431.09960938 -47 1431.09960938 -74 1403.09960938 c 128,-1,31
 -101 1375.09960938 -101 1375.09960938 -101 1330.09960938 c 0,20,21
EndSplineSet
EndChar

StartChar: ZLM_DIACRITIC_OI
Encoding: 926928 926928 332
Width: 0
GlyphClass: 2
Flags: W
HStem: 1170 117<2.79582 112.273>
VStem: -217.669 79.9199<1174 1259.23> 124.331 77.7598<1313.82 1383>
LayerCount: 2
Fore
SplineSet
69.611328125 1287 m 0,0,1
 52 1287 52 1287 35.5 1301.5 c 128,-1,2
 19 1316 19 1316 0.2109375 1333 c 0,3,4
 -38 1368 -38 1368 -66.2890625 1352 c 1,5,-1
 55 1518.39257812 l 1,6,-1
 -21.5126953125 1569.99414062 l 1,7,8
 -36 1557 -36 1557 -80 1500 c 0,9,10
 -191 1357 -191 1357 -208.0390625 1262.75 c 0,11,12
 -218 1206 -218 1206 -217.668945312 1174 c 1,13,-1
 -137.749023438 1174 l 1,14,15
 -137 1262 -137 1262 -84.46875 1262 c 0,16,17
 -69 1262 -69 1262 -51.5 1247.5 c 128,-1,18
 -34 1233 -34 1233 -14.5 1216 c 128,-1,19
 5 1199 5 1199 27 1184.5 c 128,-1,20
 49 1170 49 1170 74.650390625 1170 c 0,21,22
 103 1170 103 1170 126.5 1185.5 c 128,-1,23
 150 1201 150 1201 166.5 1229 c 128,-1,24
 183 1257 183 1257 192 1296.5 c 128,-1,25
 201 1336 201 1336 202.090820312 1383 c 1,26,-1
 124.331054688 1383 l 1,27,28
 123 1339 123 1339 109 1313 c 128,-1,29
 95 1287 95 1287 69.611328125 1287 c 0,0,1
EndSplineSet
EndChar

StartChar: ZLM_DIACRITIC_AU
Encoding: 926944 926944 343
Width: 0
GlyphClass: 2
Flags: W
HStem: 1316 222<-80.5419 18.7666>
VStem: -112 227<1349.52 1496.74>
LayerCount: 2
Fore
SplineSet
-72 1124 m 2,0,1
 -82 1133 -82 1133 -82 1147 c 0,2,3
 -82 1152 -82 1152 -79 1158 c 128,-1,4
 -76 1164 -76 1164 -71 1170 c 0,5,6
 -63 1179 -63 1179 -50.5 1193 c 128,-1,7
 -38 1207 -38 1207 -25 1226 c 128,-1,8
 -12 1245 -12 1245 0 1268 c 128,-1,9
 12 1291 12 1291 19 1318 c 1,10,11
 14 1317 14 1317 9 1316.5 c 128,-1,12
 4 1316 4 1316 -2 1316 c 0,13,14
 -51 1316 -51 1316 -81.5 1348.5 c 128,-1,15
 -112 1381 -112 1381 -112 1431 c 0,16,17
 -112 1476 -112 1476 -81.5 1507 c 128,-1,18
 -51 1538 -51 1538 0 1538 c 0,19,20
 57 1538 57 1538 86 1498 c 128,-1,21
 115 1458 115 1458 115 1394 c 0,22,23
 115 1316 115 1316 72.5 1241.5 c 128,-1,24
 30 1167 30 1167 -47 1101 c 1,25,-1
 -72 1124 l 2,0,1
EndSplineSet
LCarets2: 1 0
EndChar

StartChar: ZLM_CAS_ISO
Encoding: 926960 926960 354
Width: 940
GlyphClass: 2
Flags: W
HStem: 0 21G<620 798> 620 175<54.5579 424.135> 993 20G<614 798>
VStem: 620 178<0 839>
LayerCount: 2
Fore
SplineSet
620 0 m 1,0,-1
 620 839 l 1,1,2
 582 755 582 755 452.9375 678.5 c 0,3,4
 354 620 354 620 205.684570312 620 c 0,5,6
 157 620 157 620 113.615234375 627 c 0,7,8
 71 634 71 634 36.39453125 648 c 1,9,-1
 54.21484375 781 l 1,10,11
 65 807 65 807 100.25 807 c 0,12,13
 121 807 121 807 161.134765625 801 c 0,14,15
 201 795 201 795 250.235351562 795 c 0,16,17
 323 795 323 795 378.6875 809.5 c 0,18,19
 434 824 434 824 478.182617188 851.5 c 0,20,21
 522 879 522 879 556.14453125 919.5 c 0,22,23
 608 981 608 981 620 1013 c 1,24,-1
 798 1013 l 1,25,-1
 798 0 l 1,26,-1
 620 0 l 1,0,-1
EndSplineSet
EndChar

StartChar: ZLM_FULL_A
Encoding: 926961 926961 355
Width: 1111
GlyphClass: 2
Flags: W
AnchorPoint: "Anchor-3" 227 -107 basechar 0
AnchorPoint: "Anchor-1" 393 1083 basechar 0
LayerCount: 2
Fore
SplineSet
985 869 m 1,0,-1
 985 1013 l 1,1,-1
 141 1013 l 1,2,-1
 141 0 l 1,3,-1
 313 0 l 1,4,-1
 313 869 l 1,5,-1
 985 869 l 1,0,-1
EndSplineSet
EndChar

StartChar: ZLM_FULL_E
Encoding: 926962 926962 356
Width: 1111
GlyphClass: 2
Flags: W
AnchorPoint: "Anchor-3" 227 -107 basechar 0
AnchorPoint: "Anchor-1" 393 1083 basechar 0
LayerCount: 2
Fore
SplineSet
985 455 m 1,0,-1
 985 599 l 1,1,-1
 313 599 l 0,2,-1
 313 1013 l 0,3,-1
 141 1013 l 1,4,-1
 141 0 l 1,5,-1
 313 0 l 1,6,-1
 313 455 l 1,7,-1
 985 455 l 1,0,-1
EndSplineSet
EndChar

StartChar: ZLM_FULL_I
Encoding: 926963 926963 357
Width: 1111
GlyphClass: 2
Flags: W
HStem: 0 21G<141 313 813 985> 869 144<313 813>
VStem: 141 172<0 869> 813 172<0 869>
LayerCount: 2
Fore
SplineSet
313 869 m 1,0,-1
 313 0 l 1,1,-1
 141 0 l 1,2,-1
 141 869 l 1,3,-1
 141 1013 l 1,4,-1
 985 1013 l 1,5,-1
 985 869 l 1,6,-1
 985 0 l 1,7,-1
 813 0 l 1,8,-1
 813 869 l 1,9,-1
 313 869 l 1,0,-1
EndSplineSet
EndChar

StartChar: ZLM_FULL_O
Encoding: 926964 926964 358
Width: 1111
GlyphClass: 2
Flags: W
AnchorPoint: "Anchor-3" 899 1120 basechar 0
AnchorPoint: "Anchor-1" 476 -70 basechar 0
LayerCount: 2
Fore
SplineSet
141 144 m 1,0,-1
 141 0 l 1,1,-1
 985 0 l 1,2,-1
 985 1013 l 1,3,-1
 813 1013 l 1,4,-1
 813 144 l 1,5,-1
 141 144 l 1,0,-1
EndSplineSet
EndChar

StartChar: ZLM_FULL_U
Encoding: 926965 926965 359
Width: 1111
GlyphClass: 2
Flags: W
AnchorPoint: "Anchor-3" 227 1120 basechar 0
AnchorPoint: "Anchor-1" 393 -70 basechar 0
LayerCount: 2
Fore
SplineSet
313 144 m 1,0,-1
 313 1013 l 1,1,-1
 141 1013 l 1,2,-1
 141 144 l 1,3,-1
 141 0 l 1,4,-1
 985 0 l 1,5,-1
 985 144 l 1,6,-1
 985 1013 l 1,7,-1
 813 1013 l 1,8,-1
 813 144 l 1,9,-1
 313 144 l 1,0,-1
EndSplineSet
EndChar

StartChar: ZLM_FULL_Y
Encoding: 926966 926966 360
Width: 1111
GlyphClass: 2
Flags: W
AnchorPoint: "Anchor-3" 227 -107 basechar 0
AnchorPoint: "Anchor-1" 726 1083 basechar 0
LayerCount: 2
Fore
SplineSet
985 455 m 1,0,-1
 985 599 l 1,1,-1
 646 599 l 0,2,-1
 646 1013 l 0,3,-1
 474 1013 l 1,4,-1
 474 599 l 0,5,-1
 141 599 l 4,6,-1
 141 453 l 0,7,-1
 474 453 l 0,8,-1
 474 0 l 1,9,-1
 646 0 l 1,10,-1
 646 455 l 1,11,-1
 985 455 l 1,0,-1
EndSplineSet
EndChar

StartChar: ZLM_FULL_AI
Encoding: 926967 926967 361
Width: 1111
GlyphClass: 2
Flags: W
HStem: 0 144<313 985> 869 144<313 985>
VStem: 141 172<144 869>
AnchorPoint: "Anchor-3" 227 -107 basechar 0
AnchorPoint: "Anchor-1" 393 1083 basechar 0
LayerCount: 2
Fore
SplineSet
985 144 m 1,0,-1
 985 0 l 1,1,-1
 313 0 l 1,2,-1
 141 0 l 1,3,-1
 141 1013 l 1,4,-1
 313 1013 l 1,5,-1
 985 1013 l 1,6,-1
 985 869 l 1,7,-1
 313 869 l 1,8,-1
 313 144 l 1,9,-1
 985 144 l 1,0,-1
EndSplineSet
EndChar

StartChar: ZLM_FULL_EI
Encoding: 926968 926968 362
Width: 866
GlyphClass: 2
Flags: W
HStem: -16 128<245.123 562.363> 18.5 183.5<126.713 240.363> 896 133<315.295 627.149>
VStem: 94 169<664.359 845.049> 621 167<169.046 369.698>
AnchorPoint: "Anchor-3" 448 1120 basechar 0
AnchorPoint: "Anchor-1" 422 -70 basechar 0
LayerCount: 2
Fore
SplineSet
731 846 m 2,0,1
 719 824 719 824 694 824 c 0,2,3
 679 824 679 824 660 835 c 128,-1,4
 641 846 641 846 613.5 859.5 c 128,-1,5
 586 873 586 873 548 884.5 c 128,-1,6
 510 896 510 896 458 896 c 0,7,8
 413 896 413 896 377 884.5 c 128,-1,9
 341 873 341 873 315.5 853 c 128,-1,10
 290 833 290 833 276.5 806.5 c 128,-1,11
 263 780 263 780 263 749 c 0,12,13
 263 710 263 710 285.5 684 c 128,-1,14
 308 658 308 658 345 639 c 128,-1,15
 382 620 382 620 429 605.5 c 128,-1,16
 476 591 476 591 525.5 574.5 c 128,-1,17
 575 558 575 558 622 538 c 128,-1,18
 669 518 669 518 706 488 c 128,-1,19
 743 458 743 458 765.5 414.5 c 128,-1,20
 788 371 788 371 788 310 c 0,21,22
 788 240 788 240 763 180.5 c 128,-1,23
 738 121 738 121 689 77.5 c 128,-1,24
 640 34 640 34 569 9 c 128,-1,25
 498 -16 498 -16 405 -16 c 0,26,27
 299 -16 299 -16 213 18.5 c 128,-1,28
 127 53 127 53 67 107 c 1,29,-1
 109 175 l 2,30,31
 117 188 117 188 128 195 c 128,-1,32
 139 202 139 202 156 202 c 0,33,34
 174 202 174 202 194 188 c 128,-1,35
 214 174 214 174 242.5 157 c 128,-1,36
 271 140 271 140 312 126 c 128,-1,37
 353 112 353 112 414 112 c 0,38,39
 466 112 466 112 505 125.5 c 128,-1,40
 544 139 544 139 570 162 c 128,-1,41
 596 185 596 185 608.5 215 c 128,-1,42
 621 245 621 245 621 279 c 0,43,44
 621 321 621 321 598.5 348.5 c 128,-1,45
 576 376 576 376 539 395.5 c 128,-1,46
 502 415 502 415 454.5 429.5 c 128,-1,47
 407 444 407 444 357.5 460 c 128,-1,48
 308 476 308 476 260.5 496.5 c 128,-1,49
 213 517 213 517 176 548 c 128,-1,50
 139 579 139 579 116.5 624.5 c 128,-1,51
 94 670 94 670 94 735 c 0,52,53
 94 793 94 793 118 846.5 c 128,-1,54
 142 900 142 900 188 940.5 c 128,-1,55
 234 981 234 981 301 1005 c 128,-1,56
 368 1029 368 1029 454 1029 c 0,57,58
 554 1029 554 1029 633.5 997.5 c 128,-1,59
 713 966 713 966 771 911 c 1,60,-1
 731 846 l 2,0,1
EndSplineSet
EndChar

StartChar: ZLM_FULL_OI
Encoding: 926969 926969 363
Width: 1111
GlyphClass: 2
Flags: W
AnchorPoint: "Anchor-3" 642 -107 basechar 0
AnchorPoint: "Anchor-1" 733 1083 basechar 0
LayerCount: 2
Fore
SplineSet
141 144 m 1,0,-1
 141 0 l 1,1,-1
 813 0 l 1,2,-1
 985 0 l 1,3,-1
 985 1013 l 1,4,-1
 813 1013 l 1,5,-1
 141 1013 l 1,6,-1
 141 869 l 1,7,-1
 813 869 l 1,8,-1
 813 144 l 1,9,-1
 141 144 l 1,0,-1
EndSplineSet
EndChar

StartChar: ZLM_FULL_AU
Encoding: 926970 926970 364
Width: 996
GlyphClass: 2
Flags: W
HStem: 0 21G<23 192 791 973> 993 20G<37 219 787.5 959>
AnchorPoint: "Anchor-3" 497 1120 basechar 0
AnchorPoint: "Anchor-1" 499 -70 basechar 0
LayerCount: 2
Fore
SplineSet
973 0 m 1,0,-1
 802 0 l 2,1,2
 780 0 780 0 767.5 11.5 c 128,-1,3
 755 23 755 23 747 37 c 2,4,-1
 492 434 l 1,5,6
 488 420 488 420 483.5 406.5 c 128,-1,7
 479 393 479 393 471 382 c 2,8,-1
 235 37 l 2,9,10
 225 23 225 23 213.5 11.5 c 128,-1,11
 202 0 202 0 182 0 c 2,12,-1
 23 0 l 1,13,-1
 378 520 l 1,14,-1
 37 1013 l 1,15,-1
 208 1013 l 2,16,17
 230 1013 230 1013 240 1006 c 128,-1,18
 250 999 250 999 258 986 c 2,19,-1
 507 606 l 1,20,21
 515 635 515 635 532 662 c 2,22,-1
 750 982 l 2,23,24
 759 996 759 996 769.5 1004.5 c 128,-1,25
 780 1013 780 1013 795 1013 c 2,26,-1
 959 1013 l 1,27,-1
 618 529 l 1,28,-1
 973 0 l 1,0,-1
EndSplineSet
EndChar
